<?xml version="1.0" encoding="UTF-8"?>
<!DOCTYPE svg PUBLIC "-//W3C//DTD SVG 1.1//EN" "http://www.w3.org/Graphics/SVG/1.1/DTD/svg11.dtd">
<!-- Creator: CorelDRAW -->
<svg xmlns="http://www.w3.org/2000/svg" xml:space="preserve" width="2591.86mm" height="718.608mm" version="1.1" style="shape-rendering:geometricPrecision; text-rendering:geometricPrecision; image-rendering:optimizeQuality; fill-rule:evenodd; clip-rule:evenodd"
viewBox="0 0 259185.82 71860.82"
 xmlns:xlink="http://www.w3.org/1999/xlink"
 xmlns:xodm="http://www.corel.com/coreldraw/odm/2003">
 <defs>
  <style type="text/css">
   <![CDATA[
    .fil12 {fill:white}
    .fil7 {fill:url(#id0)}
    .fil11 {fill:url(#id1)}
    .fil2 {fill:url(#id2)}
    .fil10 {fill:url(#id3)}
    .fil9 {fill:url(#id4)}
    .fil8 {fill:url(#id5)}
    .fil5 {fill:url(#id6)}
    .fil1 {fill:url(#id7)}
    .fil3 {fill:url(#id8)}
    .fil4 {fill:url(#id9)}
    .fil0 {fill:url(#id10)}
    .fil6 {fill:url(#id11)}
   ]]>
  </style>
  <linearGradient id="id0" gradientUnits="userSpaceOnUse" x1="67777.07" y1="53128.33" x2="73755.6" y2="64617.24">
   <stop offset="0" style="stop-opacity:1; stop-color:#DE2426"/>
   <stop offset="0.101961" style="stop-opacity:1; stop-color:#DE2426"/>
   <stop offset="0.8" style="stop-opacity:1; stop-color:#944999"/>
   <stop offset="1" style="stop-opacity:1; stop-color:#944999"/>
  </linearGradient>
  <linearGradient id="id1" gradientUnits="userSpaceOnUse" x1="69655.97" y1="48364.12" x2="69655.97" y2="54517.43">
   <stop offset="0" style="stop-opacity:1; stop-color:#F2811F"/>
   <stop offset="0.301961" style="stop-opacity:1; stop-color:#F2811F"/>
   <stop offset="0.6" style="stop-opacity:1; stop-color:#E44025"/>
   <stop offset="1" style="stop-opacity:1; stop-color:#D41212"/>
  </linearGradient>
  <linearGradient id="id2" gradientUnits="userSpaceOnUse" x1="82643.83" y1="67968.28" x2="98086.33" y2="54254.04">
   <stop offset="0" style="stop-opacity:1; stop-color:#454EA7"/>
   <stop offset="0.2" style="stop-opacity:1; stop-color:#454EA7"/>
   <stop offset="0.8" style="stop-opacity:1; stop-color:#4998C7"/>
   <stop offset="1" style="stop-opacity:1; stop-color:#4998C7"/>
  </linearGradient>
  <linearGradient id="id3" gradientUnits="userSpaceOnUse" x1="74988.56" y1="46233.99" x2="70187.25" y2="49563.15">
   <stop offset="0" style="stop-opacity:1; stop-color:#FFD333"/>
   <stop offset="0.2" style="stop-opacity:1; stop-color:#FACD29"/>
   <stop offset="0.8" style="stop-opacity:1; stop-color:#F2811F"/>
   <stop offset="1" style="stop-opacity:1; stop-color:#F2811F"/>
  </linearGradient>
  <linearGradient id="id4" gradientUnits="userSpaceOnUse" x1="77687.66" y1="47265.16" x2="74652.36" y2="47265.16">
   <stop offset="0" style="stop-opacity:1; stop-color:#CCE73F"/>
   <stop offset="0.6" style="stop-opacity:1; stop-color:#FFD333"/>
   <stop offset="1" style="stop-opacity:1; stop-color:#FFD333"/>
  </linearGradient>
  <linearGradient id="id5" gradientUnits="userSpaceOnUse" x1="78247.09" y1="49652.05" x2="77984.4" y2="47533.62">
   <stop offset="0" style="stop-opacity:1; stop-color:#4998C7"/>
   <stop offset="0.6" style="stop-opacity:1; stop-color:#B4CC38"/>
   <stop offset="1" style="stop-opacity:1; stop-color:#B4CC38"/>
  </linearGradient>
  <linearGradient id="id6" gradientUnits="userSpaceOnUse" xlink:href="#id3" x1="62458.24" y1="5939.36" x2="30930.85" y2="42066.62">
  </linearGradient>
  <linearGradient id="id7" gradientUnits="userSpaceOnUse" x1="97378.22" y1="58087.23" x2="95196.71" y2="41047.1">
   <stop offset="0" style="stop-opacity:1; stop-color:#4998C7"/>
   <stop offset="0.4" style="stop-opacity:1; stop-color:#4998C7"/>
   <stop offset="1" style="stop-opacity:1; stop-color:#B4CC38"/>
  </linearGradient>
  <linearGradient id="id8" gradientUnits="userSpaceOnUse" xlink:href="#id4" x1="90114.45" y1="21195.01" x2="66179.85" y2="21195.01">
  </linearGradient>
  <linearGradient id="id9" gradientUnits="userSpaceOnUse" xlink:href="#id5" x1="97996.37" y1="45160.49" x2="89794.64" y2="15184.25">
  </linearGradient>
  <linearGradient id="id10" gradientUnits="userSpaceOnUse" x1="71741.74" y1="62710.14" x2="81569.3" y2="62710.14">
   <stop offset="0" style="stop-opacity:1; stop-color:#944999"/>
   <stop offset="0.2" style="stop-opacity:1; stop-color:#944999"/>
   <stop offset="1" style="stop-opacity:1; stop-color:#454EA7"/>
  </linearGradient>
  <linearGradient id="id11" gradientUnits="userSpaceOnUse" xlink:href="#id1" x1="32872.9" y1="31138.55" x2="32872.9" y2="71549.03">
  </linearGradient>
 </defs>
 <g id="Layer_x0020_1">
  <metadata id="CorelCorpID_0Corel-Layer"/>
  <path class="fil0" d="M76451.17 54775.8c0,0 1937.11,901.1 3898.9,301.69 0,0 5815.9,10348.17 1635.13,16620.82 0,0 -5189.01,997.12 -10078.86,-2536.03 0,0 6125.98,-9100.21 4544.83,-14386.48z"/>
  <path class="fil1" d="M84192.18 45376.92c0,0 2099.38,-3309.77 12571.23,-4000.26 10472.21,-690.42 11852.98,115.15 12773.73,1380.95 0,0 2646.89,6214.18 -3452.28,15190.22 0,0 -12773.38,-9206.26 -21864.46,-6444.43 0,0 1170.51,-3238.15 -28.22,-6126.48z"/>
  <path class="fil2" d="M84220.4 51503.4c0,0 -1118.31,2702.1 -3897.49,3574.09 0,0 8960.55,6840.22 8874.48,16075.16 0,0 8112.83,-1812.35 11047.59,-6818.13 0,0 -4948.42,-10472.14 -16024.58,-12831.12z"/>
  <path class="fil3" d="M69041.78 39654.72c0,0 -11519.25,-16459.94 -4154.31,-38785.13 0,0 9462.21,-4127.85 24639.41,5761.21 0,0 -13189.3,12133.44 -10945.28,33537.49 0,0 -4144.44,-2148.34 -9539.82,-513.57z"/>
  <path class="fil4" d="M78581.6 40168.29c0,0 517.88,-6559.16 6904.56,-13981.6 6386.69,-7422.45 9264.65,-10248.9 13694.84,-10561.82 0,0 6500.99,3311.88 9780.76,16257.77 0,0 -8458.2,863.6 -13464.11,3797.65 -5005.57,2934.55 -10650.01,7121.52 -11305.47,9696.63 0,0 -926.4,-3051.81 -5610.58,-5208.63z"/>
  <path class="fil5" d="M60974.81 47820.85c0,0 -29220.16,-7553.96 -37049.88,-31050.16 0,0 5633.04,-13139.91 25829.43,-15556.08 0,0 -322.79,26682.34 19341.75,38440.11 0,0 -5558.37,1907.47 -8121.3,8166.13z"/>
  <path class="fil6" d="M60974.81 47820.85c0,0 -2767.19,5624.02 -462.84,12823.62 0,0 -4140.2,10421.8 -32909.27,10882.33 -28769.1,460.17 -26467.56,-3682.56 -26467.56,-3682.56 0,0 -5753.78,-19333 8745.81,-35443.73 0,0 22785.24,19793.31 51093.86,15420.34z"/>
  <path class="fil7" d="M74438.93 52653.98c-2966.51,4161.37 -7254.52,5156.84 -9450.92,5386.85 406.75,3106.17 1650.3,5542.91 2975.68,7331.74 693.21,-197.7 6644.92,-2127.53 8487.48,-10596.77 -1037.16,-467.36 -2012.24,-2121.82 -2012.24,-2121.82z"/>
  <path class="fil8" d="M78560.78 49482.58c40.93,-737.77 -176.03,-1382.22 -582.43,-1917.63 -149.58,343.53 -271.64,712.86 -353.49,1109.17 0,0 599.73,299.61 867.84,993.38 0,0 31.4,-71.68 107.24,-190.74l-39.16 5.82z"/>
  <path class="fil9" d="M77543.37 47176.86c-683.33,-655.18 -1688.39,-1096.29 -2840.21,-1281.08 445.91,1565.91 1296.1,2704.22 1296.1,2704.22 1042.82,-371.83 1613.96,96.31 1613.96,96.31 -86.43,-528.82 -102.66,-1036.85 -69.85,-1519.45z"/>
  <path class="fil10" d="M73456.44 45798.45c-1428.39,13.48 -2964.04,391.37 -4335.99,1199.48 1159.23,1266.01 2932.29,2657.97 5361.52,3095.73 0,0 402.16,-1045.39 1517.29,-1493.66 0,0 -1404.05,-368.8 -2542.82,-2801.55z"/>
  <path class="fil11" d="M67034.48 48556.5c-1133.48,1255.15 -1968.15,2970.04 -2233.09,5212.86 -22.22,188.8 -34.92,371.86 -51.15,556.86 798.69,176.56 2021.42,219.85 4035.42,126.04 3711.23,-172.5 5653.27,-1798.28 5653.27,-1798.28 -601.49,-1391.32 43.04,-2560.32 43.04,-2560.32 -2991.91,452.68 -5703.36,-588.75 -7447.49,-1537.16z"/>
  <path class="fil12" d="M133869.64 20023.31c-6888.34,0 -12102.75,4860.21 -12102.75,11426.47 0,6534.22 5214.41,11491.17 12102.75,11491.17 6887.98,0 12102.39,-4989.13 12102.39,-11491.17 0,-6534.15 -5214.41,-11426.47 -12102.39,-11426.47zm64.2 4441.82c3765.91,0 6823.78,3025.78 6823.78,6984.65 0,3959.22 -3057.87,7049.24 -6823.78,7049.24 -3765.9,0 -6952.54,-3090.02 -6952.54,-7049.24 0,-3958.87 3154.54,-6984.65 6952.54,-6984.65zm35868.33 -64.56l32.1 -4216.4 -16190.38 0 0 22531.46 5085.64 0 0 -8529.71 10171.29 0 0 -4248.85 -10171.29 0 0 -5536.5 11072.64 0zm23475.6 0l32.45 -4216.4 -16190.73 0 0 22531.46 5085.99 0 0 -8529.71 10171.29 0 0 -4248.85 -10171.29 0 0 -5536.5 11072.29 0zm12403.31 18315.06l0 -22531.46 -5085.64 0 0 22531.46 5085.64 0zm19710.05 -22692.32c-6823.78,0 -12006.09,4892.32 -12006.09,11394.36 0,6534.15 5085.65,11523.28 11812.77,11523.28 3283.3,0 6727.47,-1577.2 9109.42,-4023.47l-2993.67 -3250.95c-1609.37,1609.34 -3830.46,2639.38 -5858.23,2639.38 -3862.56,0 -6855.88,-3025.67 -6855.88,-6952.44 0,-3927.12 2993.32,-6920.44 6855.88,-6920.44 2092.33,0 4313.42,1158.52 5858.23,2929.11l2961.22 -3605.03c-2220.74,-2285.65 -5632.8,-3733.8 -8883.65,-3733.8zm33421.81 4377.26l0 -4216.4 -17155.93 0 0 22531.46 17510.12 0 0 -4216.61 -12424.48 0 0 -4989.02 10879.31 0 0 -4216.75 -10879.31 0 0 -4892.68 12070.29 0z"/>
  <path class="fil12" d="M121766.89 46868.11l0 22131.77 11744.68 0c5398.56,0 8903.05,-2431.04 8903.05,-6219.63 0,-2778.33 -1736.37,-4988.34 -4388.2,-5588.21 2272.94,-694.58 3725.33,-2557.28 3725.33,-4735.76 0,-3378.16 -3441.35,-5588.17 -8777.11,-5588.17l-11207.75 0zm7292.97 5367.16l3504.5 0c1010.35,0 1673.22,599.86 1673.22,1547.03 0,978.72 -662.87,1610.15 -1673.22,1610.15l-3504.5 0 0 -3157.18zm0 8019.24l3504.5 0c1357.49,0 2241.55,631.43 2241.55,1610.18 0,1073.4 -884.06,1767.98 -2241.55,1767.98l-3504.5 0 0 -3378.16zm34286.83 -7829.8l0 -5556.6 -18721.92 0 0 22131.77 19006.26 0 0 -5556.65 -11681.53 0 0 -2746.73 10355.44 0 0 -5556.6 -10355.44 0 0 -2715.19 11397.19 0zm18122.19 13449.58l1105.26 3125.59 7798.15 0 -8997.95 -22131.77 -7514.17 0 -9345.08 22131.77 7513.81 0 1136.65 -3125.59 8303.33 0zm-1799.52 -5240.94l-4609.39 0 2336.09 -6472.2 2273.3 6472.2zm22226.42 -13986.26c-6945.49,0 -11997.27,4735.76 -11997.27,11239.54 0,6598.49 4925.48,11428.96 11713.28,11428.96 3409.6,0 7166.68,-1736.43 9629.42,-4420.04l-4230.86 -4514.75c-1452.04,1547 -3441,2525.71 -5019.68,2525.71 -2652.18,0 -4577.99,-2146.86 -4577.99,-5114.6 0,-2936.17 1925.81,-5051.46 4577.99,-5051.46 1704.98,0 3693.94,1168.11 5019.68,2967.74l4230.86 -5019.92c-2273.3,-2462.6 -5967.23,-4041.18 -9345.43,-4041.18zm21563.54 0c-7040.39,0 -12154.96,4704.19 -12154.96,11271.11 0,6598.5 5114.57,11397.39 12154.96,11397.39 7040.74,0 12155.31,-4830.47 12155.31,-11397.39 0,-6535.35 -5114.57,-11271.11 -12155.31,-11271.11zm94.89 6093.36c2525.54,0 4546.25,2178.43 4546.25,5209.32 0,3030.89 -2020.71,5272.48 -4546.25,5272.48 -2525.88,0 -4735.68,-2241.59 -4735.68,-5272.48 0,-3030.89 2178.4,-5209.32 4735.68,-5209.32zm35612.92 16259.43l0 -22131.77 -6630.1 0 0 11365.79 -8745.37 -11365.79 -6124.92 0 0 22131.77 6661.5 0 0 -11302.69 8713.96 11302.69 6124.93 0z"/>
 </g>
</svg>
